<svg width="106" height="13" viewBox="0 0 106 13" fill="#a3a3a3" xmlns="http://www.w3.org/2000/svg"><path d="M0.409091 12V0.363636H1.81818V5.54545H8.02273V0.363636H9.43182V12H8.02273V6.79545H1.81818V12H0.409091ZM11.6165 1.61364V0.363636H20.3438V1.61364H16.6847V12H15.2756V1.61364H11.6165ZM22.5185 0.363636H24.2003L28.1548 10.0227H28.2912L32.2457 0.363636H33.9276V12H32.6094V3.15909H32.4957L28.8594 12H27.5866L23.9503 3.15909H23.8366V12H22.5185V0.363636ZM36.7528 12V0.363636H38.1619V10.75H43.571V12H36.7528ZM57.2278 11.104L50.0598 7.728V5.728L57.2278 2.352V4.192L52.5878 6.336C52.3744 6.432 52.1611 6.51733 51.9478 6.592C51.7451 6.656 51.5851 6.69867 51.4678 6.72C51.5851 6.74133 51.7504 6.784 51.9638 6.848C52.1771 6.912 52.3851 6.992 52.5878 7.088L57.2278 9.232V11.104ZM98.0285 11.104V9.264L102.669 7.12C102.882 7.024 103.09 6.944 103.293 6.88C103.506 6.80533 103.671 6.75733 103.789 6.736C103.671 6.71467 103.506 6.67733 103.293 6.624C103.079 6.56 102.871 6.48 102.669 6.384L98.0285 4.224V2.352L105.197 5.728V7.728L98.0285 11.104Z" fill="#a3a3a3"/><path d="M59.2695 12V3.2H60.9015V4.384H61.2375L60.9655 4.672C60.9655 4.18133 61.1042 3.78667 61.3815 3.488C61.6588 3.18933 62.0162 3.04 62.4535 3.04C62.9228 3.04 63.2855 3.232 63.5415 3.616C63.8082 4 63.9415 4.51733 63.9415 5.168L63.5895 4.384H64.1335L63.9255 4.672C63.9255 4.18133 64.0642 3.78667 64.3415 3.488C64.6188 3.18933 64.9868 3.04 65.4455 3.04C65.9895 3.04 66.4215 3.24267 66.7415 3.648C67.0615 4.05333 67.2215 4.60267 67.2215 5.296V12H65.4615V5.376C65.4615 5.088 65.3975 4.864 65.2695 4.704C65.1415 4.53333 64.9548 4.448 64.7095 4.448C64.4748 4.448 64.2882 4.528 64.1495 4.688C64.0215 4.848 63.9575 5.07733 63.9575 5.376V12H62.5175V5.376C62.5175 5.07733 62.4535 4.848 62.3255 4.688C62.1975 4.528 62.0108 4.448 61.7655 4.448C61.5202 4.448 61.3335 4.528 61.2055 4.688C61.0882 4.848 61.0295 5.07733 61.0295 5.376V12H59.2695ZM72.8473 12.16C72.1006 12.16 71.4499 12.016 70.8953 11.728C70.3406 11.44 69.9086 11.04 69.5993 10.528C69.3006 10.0053 69.1513 9.39733 69.1513 8.704V6.496C69.1513 5.80267 69.3006 5.2 69.5993 4.688C69.9086 4.16533 70.3406 3.76 70.8953 3.472C71.4499 3.184 72.1006 3.04 72.8473 3.04C73.5833 3.04 74.2233 3.184 74.7673 3.472C75.3219 3.76 75.7486 4.16533 76.0473 4.688C76.3566 5.2 76.5113 5.80267 76.5113 6.496V8.08H71.0873V8.704C71.0873 9.32267 71.2366 9.792 71.5353 10.112C71.8339 10.4213 72.2766 10.576 72.8633 10.576C73.3113 10.576 73.6739 10.5013 73.9513 10.352C74.2286 10.192 74.4046 9.96267 74.4793 9.664H76.4473C76.2979 10.4213 75.8926 11.0293 75.2313 11.488C74.5806 11.936 73.7859 12.16 72.8473 12.16ZM74.5753 6.96V6.48C74.5753 5.872 74.4313 5.408 74.1433 5.088C73.8553 4.75733 73.4233 4.592 72.8473 4.592C72.2713 4.592 71.8339 4.75733 71.5353 5.088C71.2366 5.41867 71.0873 5.888 71.0873 6.496V6.832L74.7193 6.8L74.5753 6.96ZM83.385 12C82.5423 12 81.881 11.7653 81.401 11.296C80.9317 10.8267 80.697 10.1813 80.697 9.36V5.008H78.313V3.2H80.697V0.719999H82.713V3.2H86.089V5.008H82.713V9.36C82.713 9.91467 82.985 10.192 83.529 10.192H85.929V12H83.385ZM91.0428 12.16C90.1361 12.16 89.4214 11.92 88.8988 11.44C88.3761 10.96 88.1148 10.3147 88.1148 9.504C88.1148 8.64 88.4028 7.97333 88.9788 7.504C89.5548 7.03467 90.3708 6.8 91.4268 6.8H93.6188V6.048C93.6188 5.62133 93.4801 5.29067 93.2028 5.056C92.9254 4.81067 92.5468 4.688 92.0668 4.688C91.6294 4.688 91.2668 4.784 90.9788 4.976C90.6908 5.168 90.5201 5.42933 90.4668 5.76H88.5148C88.6108 4.928 88.9841 4.26667 89.6348 3.776C90.2854 3.28533 91.1174 3.04 92.1308 3.04C93.2081 3.04 94.0561 3.312 94.6748 3.856C95.3041 4.38933 95.6188 5.11467 95.6188 6.032V12H93.6828V10.464H93.3628L93.6828 10.032C93.6828 10.6827 93.4428 11.2 92.9628 11.584C92.4828 11.968 91.8428 12.16 91.0428 12.16ZM91.6988 10.656C92.2641 10.656 92.7228 10.512 93.0748 10.224C93.4374 9.936 93.6188 9.56267 93.6188 9.104V8.032H91.4588C91.0534 8.032 90.7281 8.14933 90.4828 8.384C90.2374 8.61867 90.1148 8.928 90.1148 9.312C90.1148 9.728 90.2534 10.0587 90.5308 10.304C90.8188 10.5387 91.2081 10.656 91.6988 10.656Z" fill="#348BFC"/></svg>
